<?xml version="1.0" encoding="utf-8"?>
<!-- Generator: Adobe Illustrator 17.0.0, SVG Export Plug-In . SVG Version: 6.00 Build 0)  -->
<!DOCTYPE svg PUBLIC "-//W3C//DTD SVG 1.1//EN" "http://www.w3.org/Graphics/SVG/1.1/DTD/svg11.dtd">
<svg version="1.1" id="Layer_1" xmlns="http://www.w3.org/2000/svg" xmlns:xlink="http://www.w3.org/1999/xlink" x="0px" y="0px"
	 width="665px" height="284px" viewBox="0 0 665 284" enable-background="new 0 0 665 284" xml:space="preserve">
<g id="Layer_2">
</g>
<g>
	<polygon fill="#C1272D" points="220.45,251.25 221.05,251.25 208.6,233.4 	"/>
	<path fill="#C1272D" d="M208.6,233.4l-43.05-62.25l50.55-64.65h-33.15l-50.4,64.05l10.95,16.5l41.55,59.85
		C193.3,243.45,208.6,233.4,208.6,233.4z"/>
</g>
<g>
	<path fill="none" d="M208,233.7c28.35-20.7,46.65-54.15,46.65-91.65c0-62.7-51-113.55-113.55-113.55S27.55,79.5,27.55,142.05
		s51,113.55,113.55,113.55c15.6,0,30.45-3.15,44.1-8.85l0,0L208,233.7z"/>
	<path fill="#C1272D" d="M277.15,142.05C277.15,67.05,216.1,6,141.1,6S5.05,67.05,5.05,142.05S66.1,278.1,141.1,278.1
		c20.25,0,39.45-4.5,56.7-12.3l-12.6-19.05c-13.5,5.7-28.5,8.85-44.1,8.85c-62.7,0-113.55-51-113.55-113.55S78.55,28.5,141.1,28.5
		s113.55,51,113.55,113.55c0,37.65-18.45,71.1-46.65,91.65l0.75-0.45l12.3,18.75C254.95,227.4,277.15,187.2,277.15,142.05z"/>
</g>
<g>
	<path d="M327.124,128.371c15.778,0,23.367,12.848,23.367,27.799c0,14.952-7.589,27.8-23.367,27.8
		c-15.778,0-23.367-12.848-23.367-27.8C303.757,141.219,311.345,128.371,327.124,128.371z M327.124,180.814
		c10.819,0,18.859-7.814,18.859-24.645c0-16.83-8.04-24.644-18.859-24.644c-10.819,0-18.859,7.814-18.859,24.644
		C308.265,173,316.304,180.814,327.124,180.814z"/>
	<path d="M355.754,144.299h9.617v25.471c0,7.664,2.93,11.195,8.865,11.195c5.786,0,10.219-5.26,10.219-14.125v-19.385h-6.011v-3.156
		h10.067v35.614h6.012v3.155h-10.068v-6.312h-0.15c-2.028,4.658-6.161,7.363-11.346,7.363c-8.189,0-11.646-4.583-11.646-14.351
		v-22.314h-5.56V144.299z"/>
	<path d="M403.544,136.034l4.057-1.502v9.767h10.444v3.156h-10.444v27.123c0,4.733,1.879,6.387,3.832,6.387
		c3.081,0,4.658-2.63,4.658-7.438V172.7h3.156v1.427c0,5.936-3.006,9.993-8.19,9.993c-5.259,0-7.513-3.005-7.513-8.641v-28.024
		h-6.913v-3.156h6.913V136.034z"/>
	<path d="M424.207,169.469h3.156c0.301,7.739,4.583,11.496,10.368,11.496s9.467-3.081,9.467-8.415c0-4.658-2.104-6.236-8.34-7.213
		l-4.884-0.752c-6.011-0.901-9.392-3.831-9.392-9.241c0-7.813,5.936-12.097,12.473-12.097c4.809,0,8.415,1.653,10.293,5.635h0.15
		v-4.583h3.155v13.299h-3.155v-2.104c0-5.86-4.208-9.092-9.843-9.092c-5.56,0-9.016,3.457-9.016,8.416
		c0,4.057,3.005,5.635,6.837,6.235l5.635,0.902c7.138,1.127,10.144,4.357,10.144,10.218c0,7.964-5.185,11.946-13.374,11.946
		c-5.109,0-8.641-1.878-10.443-6.236h-0.075v5.185h-3.156V169.469z"/>
	<path d="M473.874,143.247c11.345,0,16.604,8.565,16.604,20.437s-6.312,20.437-16.604,20.437c-10.294,0-16.604-8.565-16.604-20.437
		S463.58,143.247,473.874,143.247z M473.874,180.965c6.912,0,12.547-6.236,12.547-17.281c0-9.542-4.207-17.281-12.547-17.281
		c-6.912,0-12.548,6.236-12.548,17.281C461.326,173.226,465.534,180.965,473.874,180.965z"/>
	<path d="M494.839,144.299h9.617v25.471c0,7.664,2.93,11.195,8.865,11.195c5.786,0,10.219-5.26,10.219-14.125v-19.385h-6.011v-3.156
		h10.068v35.614h6.01v3.155H523.54v-6.312h-0.15c-2.028,4.658-6.161,7.363-11.346,7.363c-8.189,0-11.646-4.583-11.646-14.351
		v-22.314h-5.56V144.299z"/>
	<path d="M536.618,179.913h6.011v-32.458h-6.011v-3.156h10.067v6.912h0.15c1.578-5.184,5.561-7.964,10.144-7.964
		c0.901,0,1.652,0.075,2.104,0.226v3.606c-0.376-0.15-1.202-0.226-1.803-0.226c-7.138,0-10.595,5.936-10.595,14.125v18.935h7.363
		v3.155h-17.431V179.913z"/>
	<path d="M594.849,171.047c-0.601,8.039-6.387,13.073-14.05,13.073c-11.346,0-16.604-8.565-16.604-20.437
		s5.259-20.437,16.604-20.437c4.809,0,9.392,2.705,10.744,7.288h0.15v-6.236h3.155v14.351h-3.155
		c-0.752-8.49-4.658-12.247-10.895-12.247c-8.34,0-12.548,7.739-12.548,17.281s4.208,17.281,12.548,17.281
		c5.71,0,9.392-3.606,10.443-9.918H594.849z"/>
	<path d="M604.62,164.436c0.15,10.067,4.658,16.529,12.548,16.529c5.785,0,10.218-2.63,11.345-9.467h3.606
		c-1.427,8.49-7.063,12.622-14.951,12.622c-11.346,0-16.604-8.565-16.604-20.437s5.259-20.437,16.604-20.437
		c11.42,0,15.703,10.294,15.703,21.188H604.62z M628.813,161.279c-0.226-9.241-4.433-14.877-12.172-14.877
		c-6.837,0-11.27,6.086-12.021,14.877H628.813z"/>
	<path d="M301.052,257.56h6.462v-32.458h-6.462v-3.156h10.519v35.614h6.011v3.155h-16.53V257.56z M307.063,208.422h4.959v5.409
		h-4.959V208.422z"/>
	<path d="M320.964,257.56h6.011v-32.458h-6.011v-3.156h10.068v6.086h0.15c2.029-4.658,5.785-7.138,11.346-7.138
		c8.189,0,11.646,4.583,11.646,14.351v22.315h5.56v3.155h-16.078v-3.155h6.461v-22.315c0-7.663-2.93-11.195-8.865-11.195
		c-6.011,0-10.218,5.561-10.218,14.576v18.935h6.01v3.155h-16.078V257.56z"/>
	<path d="M381.604,257.56h7.513v-47.485h-7.513v-3.155h19.084v3.155h-7.514v21.939l22.24-21.939h-6.612v-3.155h15.327v3.155h-3.606
		l-22.39,22.09l22.69,25.396h3.907v3.155h-15.327v-3.155h6.461l-22.69-25.245v25.245h7.514v3.155h-19.084V257.56z"/>
	<path d="M442.617,220.894c11.345,0,16.604,8.565,16.604,20.437s-6.312,20.437-16.604,20.437c-10.294,0-16.604-8.565-16.604-20.437
		S432.323,220.894,442.617,220.894z M442.617,258.611c6.912,0,12.547-6.236,12.547-17.281c0-9.542-4.207-17.281-12.547-17.281
		c-6.912,0-12.548,6.236-12.548,17.281C430.069,250.872,434.277,258.611,442.617,258.611z"/>
	<path d="M465.235,247.115h3.156c0.3,7.739,4.583,11.496,10.368,11.496s9.467-3.081,9.467-8.415c0-4.658-2.104-6.236-8.34-7.213
		l-4.884-0.752c-6.011-0.901-9.392-3.831-9.392-9.241c0-7.813,5.936-12.097,12.473-12.097c4.809,0,8.415,1.653,10.293,5.635h0.15
		v-4.583h3.155v13.299h-3.155v-2.104c0-5.86-4.207-9.092-9.843-9.092c-5.56,0-9.016,3.457-9.016,8.416
		c0,4.057,3.005,5.635,6.837,6.235l5.635,0.902c7.138,1.127,10.144,4.357,10.144,10.218c0,7.964-5.185,11.946-13.374,11.946
		c-5.109,0-8.641-1.878-10.443-6.236h-0.075v5.185h-3.156V247.115z"/>
	<path d="M514.901,220.894c11.345,0,16.604,8.565,16.604,20.437s-6.312,20.437-16.604,20.437c-10.294,0-16.604-8.565-16.604-20.437
		S504.607,220.894,514.901,220.894z M514.901,258.611c6.912,0,12.547-6.236,12.547-17.281c0-9.542-4.207-17.281-12.547-17.281
		c-6.912,0-12.548,6.236-12.548,17.281C502.354,250.872,506.562,258.611,514.901,258.611z"/>
	<path d="M538.646,225.102h-3.381v-3.156h12.924v3.156h-5.485l10.368,31.105h0.15l10.369-31.105h-5.485v-3.156h12.923v3.156h-3.381
		l-12.172,35.613h-4.958L538.646,225.102z"/>
	<path d="M591.396,220.894c11.345,0,16.604,8.565,16.604,20.437s-6.312,20.437-16.604,20.437c-10.294,0-16.604-8.565-16.604-20.437
		S581.102,220.894,591.396,220.894z M591.396,258.611c6.912,0,12.547-6.236,12.547-17.281c0-9.542-4.207-17.281-12.547-17.281
		c-6.912,0-12.548,6.236-12.548,17.281C578.848,250.872,583.056,258.611,591.396,258.611z"/>
</g>
</svg>
